# xmcd
#
# Track frame offsets:
#	150
#	16497
#	28052
#	46915
#	62389
#	75347
#	89602
#	104135
#	117425
#	130282
#	147375
#	161265
#
# Disc length: 2358 seconds
#
# Revision: 1
# Processed by: cddbd v1.5.1PL0 Copyright (c) Steve Scherf et al.
# Submitted via: EasyCDDAExtractor 7.0.5.4
#
DISCID=9d09340c
DTITLE=João Mineiro and Marciano - Disco de Ouro
DYEAR=1900
DGENRE=Country
TTITLE0=Se Eu Não Puder Te Esquecer
TTITLE1=Whisky Com Gelo
TTITLE2=Distante Dos Olhos (Lontano Dagli Occhi)
TTITLE3=As Paredes Azuis
TTITLE4=Amor e Amizade (Dia Sim, Dia Não)
TTITLE5=Te Amo, Mas Adeus
TTITLE6=Ex-Mulher
TTITLE7=Aline
TTITLE8=Telefone Mais
TTITLE9=Já Fui Amando
TTITLE10=Eu Preciso De Um Amigo
TTITLE11=A Minha Cabeça Mudou
EXTD=
EXTT0=
EXTT1=
EXTT2=
EXTT3=
EXTT4=
EXTT5=
EXTT6=
EXTT7=
EXTT8=
EXTT9=
EXTT10=
EXTT11=
PLAYORDER=
